# xmcd
#
# Track frame offsets:
#	150
#	15249
#	28066
#	45127
#	60351
#	84815
#	99988
#	119677
#	135502
#	148999
#	162124
#	177950
#	188521
#	200971
#	215869
#	230163
#	240791
#	258042
#	276742
#	289696
#	304991
#	321695
#	337862
#
# Disc length: 4784 seconds
#
# Revision: 1
# Processed by: cddbd v1.5.2PL0 Copyright (c) Steve Scherf et al.
# Submitted via: audiograbber 1.83.01
#
DISCID=4a12ae17
DTITLE=Various Artist - Blues Harp Boogie - 25 Years Of Blues Harmonica
DYEAR=1993
DGENRE=
TTITLE0=Wailing At Weavers
TTITLE1=Get It Right
TTITLE2=Catfish
TTITLE3=AlabamaTrain
TTITLE4=Country Girl
TTITLE5=Soul Survivor
TTITLE6=Junking With Walter
TTITLE7=I'm Going Home
TTITLE8=Your Funeral And My Trial
TTITLE9=Annie Maybe
TTITLE10=Bugal Call Blues
TTITLE11=Harpoon man
TTITLE12=Trouble No More
TTITLE13=I've Done Everything I Can
TTITLE14=Walters Jump
TTITLE15=You Sure Make Loving Hard
TTITLE16=Cry Before I Go
TTITLE17=Rockin My Boogie
TTITLE18=Mine All Mine
TTITLE19=Hoodoo Man Blues
TTITLE20=I'm Your Slave
TTITLE21=Dixie Diner
TTITLE22=Baby Don't Worry
EXTD=
EXTT0=
EXTT1=
EXTT2=
EXTT3=
EXTT4=
EXTT5=
EXTT6=
EXTT7=
EXTT8=
EXTT9=
EXTT10=
EXTT11=
EXTT12=
EXTT13=
EXTT14=
EXTT15=
EXTT16=
EXTT17=
EXTT18=
EXTT19=
EXTT20=
EXTT21=
EXTT22=
PLAYORDER=
